<svg width="27" height="17" viewBox="0 0 27 17" fill="none" xmlns="http://www.w3.org/2000/svg">
<path d="M13.0082 0C7.26987 0 2.32421 3.3827 0.0523313 8.26416C-0.0174438 8.41208 -0.0174438 8.58513 0.0523313 8.73584C2.32421 13.6173 7.26989 17 13.0082 17C18.7464 17 23.6921 13.6173 25.964 8.73584C26.0338 8.58792 26.0338 8.41488 25.964 8.26416C23.6921 3.3827 18.7465 0 13.0082 0ZM13.0082 14.3653C9.76781 14.3653 7.14427 11.739 7.14427 8.5014C7.14427 5.26104 9.77061 2.6375 13.0082 2.6375C16.2485 2.6375 18.8721 5.26383 18.8721 8.5014C18.8721 11.739 16.2457 14.3653 13.0082 14.3653Z" fill="#616161"/>
<path d="M13.0078 12.2524C15.081 12.2524 16.7617 10.5717 16.7617 8.49853C16.7617 6.42531 15.081 4.74463 13.0078 4.74463C10.9346 4.74463 9.25391 6.42531 9.25391 8.49853C9.25391 10.5717 10.9346 12.2524 13.0078 12.2524Z" fill="#616161"/>
</svg>
