<svg width="21" height="28" viewBox="0 0 21 28" fill="none" xmlns="http://www.w3.org/2000/svg">
<path d="M20.4166 10.5H18.6666V8.16665C18.6666 3.66351 15.0032 0 10.5 0C5.99681 0 2.33335 3.66351 2.33335 8.16665V10.5H0.583352C0.260914 10.5 0 10.7609 0 11.0834V25.6667C0 26.9536 1.04645 28 2.33335 28H18.6667C19.9536 28 21 26.9536 21 25.6666V11.0834C21 10.7609 20.7391 10.5 20.4166 10.5ZM12.2466 22.6856C12.2648 22.8502 12.2119 23.0155 12.1014 23.1391C11.9908 23.2627 11.8325 23.3333 11.6667 23.3333H9.33335C9.16759 23.3333 9.00922 23.2627 8.89869 23.1391C8.78817 23.0155 8.73518 22.8503 8.75345 22.6856L9.12144 19.3765C8.52387 18.9418 8.1667 18.2542 8.1667 17.5C8.1667 16.2131 9.21315 15.1666 10.5001 15.1666C11.787 15.1666 12.8334 16.2131 12.8334 17.5C12.8334 18.2542 12.4762 18.9418 11.8787 19.3765L12.2466 22.6856ZM15.1666 10.5H5.83335V8.16665C5.83335 5.59349 7.92684 3.5 10.5 3.5C13.0732 3.5 15.1666 5.59349 15.1666 8.16665V10.5Z" fill="#616161"/>
</svg>
